<?xml version="1.0" standalone="no"?>
<!DOCTYPE svg PUBLIC "-//W3C//DTD SVG 20010904//EN"
 "http://www.w3.org/TR/2001/REC-SVG-20010904/DTD/svg10.dtd">
<svg version="1.0" xmlns="http://www.w3.org/2000/svg"
 width="1028.000000pt" height="1013.000000pt" viewBox="0 0 1028.000000 1013.000000"
 preserveAspectRatio="xMidYMid meet">

<g transform="translate(0.000000,1013.000000) scale(0.100000,-0.100000)"
fill="#000000" stroke="none">
<path d="M222 5093 l3 -4938 917 -3 917 -2 43 56 c24 30 53 68 66 82 12 15 39
52 59 82 21 30 40 57 44 60 7 6 177 267 203 312 11 18 51 87 89 153 323 561
593 1258 770 1985 42 171 109 501 132 650 60 381 97 568 190 945 93 377 175
663 307 1065 100 305 131 359 227 394 42 15 58 16 101 7 69 -15 102 -33 186
-101 114 -93 130 -96 163 -31 27 53 34 122 35 356 1 180 3 215 19 242 64 118
222 33 412 -222 47 -63 95 -121 107 -129 92 -65 197 74 304 402 73 222 93 252
165 252 51 0 124 -82 188 -211 29 -57 60 -112 68 -121 59 -65 215 47 345 247
69 106 125 165 160 165 35 0 83 -62 109 -142 20 -63 24 -92 23 -208 0 -78 -7
-179 -17 -240 -19 -113 -101 -501 -119 -564 -12 -38 -12 -38 -52 -32 -223 32
-633 33 -816 1 -206 -35 -393 -93 -572 -179 -98 -47 -245 -140 -308 -196 l-35
-30 35 14 c19 7 84 35 144 61 358 154 781 248 1081 239 351 -9 547 -101 722
-335 37 -49 70 -89 74 -89 76 0 345 -62 434 -100 26 -11 50 -18 53 -16 2 3 20
42 38 87 67 164 183 329 321 460 85 79 160 135 169 126 3 -3 -21 -41 -53 -84
-81 -107 -151 -220 -223 -358 -59 -113 -76 -165 -29 -89 28 46 122 163 180
226 70 74 167 156 261 219 88 60 239 141 247 133 3 -2 -51 -62 -120 -132 -69
-70 -147 -154 -175 -187 -62 -74 -144 -182 -144 -189 0 -3 33 12 73 34 85 46
203 92 226 88 9 -2 -11 -22 -54 -53 -139 -99 -288 -234 -397 -362 l-70 -83 45
-51 c48 -55 103 -147 93 -156 -3 -3 -50 2 -104 11 -54 9 -115 16 -135 16 l-37
0 -54 -112 c-30 -62 -69 -160 -87 -218 l-34 -105 -8 120 c-4 66 -6 166 -3 221
l5 102 -42 -5 c-56 -7 -208 -58 -282 -96 -137 -68 -291 -222 -360 -359 -79
-158 -85 -277 -21 -458 85 -239 99 -286 103 -360 4 -64 1 -81 -19 -120 -41
-80 -112 -109 -289 -117 -125 -7 -193 12 -255 69 -67 62 -81 118 -66 273 7 66
12 149 12 184 l0 63 -37 -28 c-344 -257 -519 -457 -599 -685 -32 -88 -44 -275
-25 -382 29 -168 118 -364 264 -583 127 -191 211 -296 652 -817 209 -246 397
-507 477 -662 67 -131 96 -213 132 -377 l6 -28 1660 0 1660 0 2 2883 c0 1585
2 3807 2 4937 l1 2055 -4943 3 -4942 2 2 -4937z m1798 3672 l0 -445 -515 0
-515 0 0 445 0 445 515 0 515 0 0 -445z m7315 0 l0 -440 -517 -3 -518 -2 0
445 0 445 518 -2 517 -3 0 -440z m-7314 -2362 c2 -364 1 -442 0 -500 l-1 -33
-515 0 -515 0 0 445 0 445 515 0 515 0 1 -357z m7314 -88 l0 -440 -517 -3
-518 -2 0 445 0 445 518 -2 517 -3 0 -440z m-7311 -2021 c8 -20 8 -848 0 -868
-5 -14 -61 -16 -519 -16 -458 0 -514 2 -519 16 -8 20 -8 848 0 868 5 14 61 16
519 16 458 0 514 -2 519 -16z m7311 -434 l0 -445 -515 0 -515 0 -3 448 -2 447
517 -2 518 -3 0 -445z m-7310 -2450 l0 -445 -520 0 -520 0 -3 435 c-1 239 0
441 3 448 3 10 113 12 522 10 l518 -3 0 -445z m7313 -2 l2 -448 -520 0 -520 0
0 450 0 450 518 -2 517 -3 3 -447z"/>
<path d="M6031 5159 c-77 -31 -122 -99 -123 -183 -1 -64 19 -103 73 -150 66
-56 154 -60 230 -11 126 81 111 274 -26 336 -43 20 -115 24 -154 8z"/>
</g>
</svg>
